<svg xmlns="http://www.w3.org/2000/svg" width="24" height="22.243" viewBox="0 0 24 22.243">
  <g id="Combined_Shape_2_Copy_3" data-name="Combined Shape 2 Copy 3" transform="translate(0 0)">
    <path id="Combined_Shape" data-name="Combined Shape" d="M4.457,22.243A4.461,4.461,0,0,1,0,17.786V11.429a.688.688,0,1,1,1.375,0v6.357a3.086,3.086,0,0,0,3.082,3.082H19.544a3.086,3.086,0,0,0,3.082-3.082V11.532a.688.688,0,1,1,1.375,0v6.254a4.462,4.462,0,0,1-4.457,4.457Zm7.06-5.46-4.376-4.37a.688.688,0,0,1,.973-.973l3.2,3.2V.688a.688.688,0,0,1,1.375,0V14.639l3.194-3.2a.688.688,0,0,1,.973.973l-4.37,4.37a.67.67,0,0,1-.484.2A.689.689,0,0,1,11.516,16.782Z" transform="translate(0 0)" fill="#bd9d7e"/>
  </g>
</svg>
