<svg id="phone-3_copy_4" data-name="phone-3 copy 4" xmlns="http://www.w3.org/2000/svg" width="48" height="48" viewBox="0 0 48 48">
  <path id="Path" d="M36.25,26.963a3.341,3.341,0,0,0-5.05,0c-1.181,1.171-2.361,2.342-3.522,3.532a.7.7,0,0,1-.972.179c-.764-.417-1.578-.754-2.312-1.21a36.628,36.628,0,0,1-8.831-8.037,20.92,20.92,0,0,1-3.165-5.07.726.726,0,0,1,.179-.933c1.181-1.141,2.332-2.312,3.493-3.483a3.354,3.354,0,0,0-.01-5.169c-.923-.933-1.845-1.845-2.768-2.778-.953-.952-1.9-1.915-2.858-2.857a3.362,3.362,0,0,0-5.05.01C4.192,2.318,3.051,3.518,1.84,4.669A5.749,5.749,0,0,0,.035,8.549,16.436,16.436,0,0,0,1.3,15.623a42.986,42.986,0,0,0,7.63,12.71A47.216,47.216,0,0,0,24.572,40.566a22.615,22.615,0,0,0,8.662,2.52,6.348,6.348,0,0,0,5.447-2.074c1.012-1.131,2.153-2.163,3.225-3.244a3.375,3.375,0,0,0,.02-5.139Q39.1,29.786,36.25,26.963Z" transform="translate(0 4.898)" fill="#bd9d7e"/>
  <path id="Path-2" data-name="Path" d="M10.962,14.694l3.732-.651a17.171,17.171,0,0,0-4.662-9.2A16.46,16.46,0,0,0,.526,0L0,3.834A12.77,12.77,0,0,1,7.362,7.585,13.248,13.248,0,0,1,10.962,14.694Z" transform="translate(24.49 9.796)" fill="#bd9d7e"/>
  <path id="Path-3" data-name="Path" d="M16.6,7.891A28.183,28.183,0,0,0,.536,0L0,3.763a24.437,24.437,0,0,1,13.882,6.816A23.789,23.789,0,0,1,20.69,23.51l3.8-.639A27.659,27.659,0,0,0,16.6,7.891Z" transform="translate(23.51)" fill="#bd9d7e"/>
</svg>
