<svg xmlns="http://www.w3.org/2000/svg" width="72" height="72" viewBox="0 0 72 72"><path d="M58.64,69.89V53.86H13.36V69.89a2.11,2.11,0,0,1-4.219,0V53.86H2.11A2.113,2.113,0,0,1,0,51.75V40.5a2.113,2.113,0,0,1,2.11-2.11H4.64V31.5a2.11,2.11,0,0,1,.3-1.085l3.53-5.883a6.6,6.6,0,1,1,5.041,2.329,6.705,6.705,0,0,1-1.425-.155L8.86,32.084V38.39H22.64V31.5a17.989,17.989,0,0,1,1.784-7.82,14.353,14.353,0,0,1,5.144-5.927,9.974,9.974,0,0,1-3.552-7.628,10.127,10.127,0,0,1,2.932-7.141,9.827,9.827,0,0,1,14.107,0,10.126,10.126,0,0,1,2.93,7.14,9.974,9.974,0,0,1-3.552,7.628,14.356,14.356,0,0,1,5.144,5.926A17.99,17.99,0,0,1,49.36,31.5v6.89H63.14V32.084l-3.227-5.378a6.66,6.66,0,0,1-1.425.155,6.623,6.623,0,1,1,5.041-2.329l3.53,5.883a2.11,2.11,0,0,1,.3,1.085v6.89H69.89A2.113,2.113,0,0,1,72,40.5V51.75a2.113,2.113,0,0,1-2.11,2.11H62.86V69.89a2.11,2.11,0,0,1-4.219,0ZM4.218,49.64H67.781V42.61H4.218ZM26.86,31.5v6.89H45.14V31.5c0-5.6-3.419-11.39-9.14-11.39S26.86,25.9,26.86,31.5ZM56.11,20.25a2.39,2.39,0,1,0,2.39-2.39A2.393,2.393,0,0,0,56.11,20.25Zm-45,0a2.39,2.39,0,1,0,2.39-2.39A2.393,2.393,0,0,0,11.11,20.25ZM30.235,10.125a5.765,5.765,0,1,0,11.531,0,5.767,5.767,0,1,0-11.531,0Zm-2.4,55.018a2.62,2.62,0,0,1,0-5.143H45.885a2.621,2.621,0,0,1,0,5.143Z" fill="#bd9d7e"/></svg>