<svg xmlns="http://www.w3.org/2000/svg" width="64.184" height="73" viewBox="0 0 64.184 73"><g transform="translate(0.5 0.5)"><path d="M52.653,66.692V44.668a1.114,1.114,0,0,0-1.015-1.19h-24.2a3.659,3.659,0,0,1-3.278-2.165l-3.647-7.9a1.007,1.007,0,0,0-.893-.626H3.649a1.115,1.115,0,0,0-1.016,1.189V67.99a1.115,1.115,0,0,0,1.016,1.189H49.581v2.674H3.649A3.765,3.765,0,0,1,0,67.99V33.972A3.764,3.764,0,0,1,3.649,30.11H19.621A3.656,3.656,0,0,1,22.9,32.275l3.648,7.9a1,1,0,0,0,.893.626h24.2a3.765,3.765,0,0,1,3.649,3.864V66.692a2.633,2.633,0,1,0,5.265,0V37.685a1.329,1.329,0,0,0-1.317-1.337H52.214V33.674h7.021a3.985,3.985,0,0,1,3.949,4.011V66.692a5.266,5.266,0,1,1-10.531,0ZM46.043,35.33V3.092A.442.442,0,0,0,45.6,2.65H11a.443.443,0,0,0-.444.442V23.847a1.331,1.331,0,0,1-2.661,0V3.092A3.1,3.1,0,0,1,11,0H45.6a3.1,3.1,0,0,1,3.1,3.092V35.33a1.331,1.331,0,0,1-2.661,0ZM23.51,22.076V11.72a1.464,1.464,0,0,1,2.309-1.165l7.368,5.179a1.42,1.42,0,0,1,0,2.331l-7.368,5.179a1.465,1.465,0,0,1-2.309-1.166Z" fill="#bd9d7e" stroke="#bd9d7e" stroke-miterlimit="10" stroke-width="1"/></g></svg>