<svg xmlns="http://www.w3.org/2000/svg" width="69" height="72" viewBox="0 0 69 72"><g transform="translate(1.5 1.5)"><path d="M63.98,19.1H56.7V11.961a2.173,2.173,0,0,0-.51-1.4L47.828.71A1.982,1.982,0,0,0,46.318,0H2.02A2.069,2.069,0,0,0,0,2.115v64.77A2.069,2.069,0,0,0,2.02,69H55.3A10.974,10.974,0,0,0,66,57.8V21.217A2.069,2.069,0,0,0,63.98,19.1Z" fill="none" stroke="#bd9d7e" stroke-miterlimit="10" stroke-width="3"/><path d="M15.529,0H2.071a2.067,2.067,0,1,0,0,4.133H15.529a2.067,2.067,0,1,0,0-4.133Z" transform="translate(9.9 13.433)" fill="#bd9d7e"/><path d="M33.2,0H2A2.034,2.034,0,0,0,0,2.067,2.034,2.034,0,0,0,2,4.133H33.2a2.034,2.034,0,0,0,2-2.067A2.034,2.034,0,0,0,33.2,0Z" transform="translate(11 31)" fill="#bd9d7e"/><path d="M33.2,0H2A2.034,2.034,0,0,0,0,2.067,2.034,2.034,0,0,0,2,4.133H33.2a2.034,2.034,0,0,0,2-2.067A2.034,2.034,0,0,0,33.2,0Z" transform="translate(11 39)" fill="#bd9d7e"/><path d="M33.2,0H2A2.034,2.034,0,0,0,0,2.067,2.034,2.034,0,0,0,2,4.133H33.2a2.034,2.034,0,0,0,2-2.067A2.034,2.034,0,0,0,33.2,0Z" transform="translate(11 46.5)" fill="#bd9d7e"/><path d="M.5.5v48" transform="translate(56.17 20.5)" fill="none" stroke="#bd9d7e" stroke-linecap="square" stroke-miterlimit="10" stroke-width="3"/></g></svg>