<svg xmlns="http://www.w3.org/2000/svg" viewBox="0 0 120 120"><path d="M0,60a60,60,0,1,1,60,60A60.069,60.069,0,0,1,0,60Zm60,58.823A58.823,58.823,0,1,0,1.177,60,58.89,58.89,0,0,0,60,118.823ZM2.972,60A57.028,57.028,0,1,1,60,117.028,57.093,57.093,0,0,1,2.972,60ZM60,116.444A56.445,56.445,0,1,0,3.556,60,56.507,56.507,0,0,0,60,116.444Zm4.022-2.047H55.979L60,103.758,64.023,114.4h0Zm-1-.69L60,105.712l-3.021,7.995Zm-11.313.116-2.357-11.279,7.946,1.218-.071.128-5.516,9.934v0Zm.3-1.956,4.206-7.574-5.979-.915Zm16.764,1.949-5.728-10,.144-.024,7.789-1.274-2.2,11.3v0Zm-.32-1.95,1.657-8.5-5.97.977Zm4.516,1.115v0l.539-11.358,7.111,8.874-7.649,2.486Zm.737-.968,5.75-1.867-5.346-6.666Zm-26.671.967-.137-.043-7.511-2.442.09-.113,7.019-8.759.541,11.357h0Zm-.736-.964-.406-8.536-5.344,6.668Zm-10.819-3.454v0L36.724,97.1l.13.063,7.051,3.549-.107.1-8.317,7.745Zm.888-1.771,6.34-5.905-5.4-2.718Zm48.626,1.746-8.536-7.74L83.6,97.113l.018.144L85,108.536v0Zm-.906-1.755-1.05-8.6-5.377,2.775Zm4.6-.4v0l-.039-.139-2.96-10.829.223.147,9.284,6.094-6.507,4.728Zm.4-1.146,4.891-3.552-7.144-4.69Zm-57.776,1.145-6.5-4.728.123-.08,9.384-6.161-3,10.968v0Zm-.4-1.145,2.255-8.244-7.145,4.692ZM18.289,60A41.712,41.712,0,1,1,60,101.714,41.76,41.76,0,0,1,18.289,60ZM60,101.127A41.126,41.126,0,1,0,18.874,60,41.173,41.173,0,0,0,60,101.127ZM20.716,60A39.283,39.283,0,1,1,60,99.29,39.331,39.331,0,0,1,20.716,60ZM60,98.12A38.121,38.121,0,1,0,21.887,60,38.16,38.16,0,0,0,60,98.12Zm-38.326.416v0L26.4,88.024l5.713,5.655-.133.061-10.3,4.8Zm1.391-1.409,7.853-3.657-4.3-4.256ZM98.8,98.5h0L88.283,93.781l5.655-5.713L94,88.2l4.8,10.3Zm-1.411-1.391-3.655-7.854-4.256,4.3ZM55.814,95.636a35.773,35.773,0,0,1-4.128-.731h16.63a35.773,35.773,0,0,1-4.128.731Zm45.782-.385-.079-.122-6.161-9.385,10.968,3-.086.118-4.64,6.389h0Zm.029-1.215,3.552-4.89-8.242-2.254ZM18.4,95.25l-4.728-6.506.141-.04,10.829-2.96-.145.223L18.405,95.25v0Zm-.029-1.213,4.692-7.144-8.244,2.253ZM44.936,92.56c-.5-.233-.993-.477-1.482-.731H76.546q-.731.38-1.481.731Zm-5.358-3.076c-.345-.239-.69-.478-1.027-.731h42.9c-.335.253-.681.492-1.027.731Zm-3.844-3.076c-.26-.239-.514-.485-.766-.731H85.033c-.252.246-.505.492-.766.731Zm-24.1-1.673,0,0L19.379,76.2l3.685,7.144-.144.018L11.641,84.735Zm1.757-.908,8.6-1.05L19.222,77.4Zm95.421.868L97.362,83.452l3.612-7.181.1.107,7.745,8.316,0,0Zm-1.77-.886-5.9-6.34-2.718,5.4Zm-74.276-.477c-.208-.242-.415-.483-.616-.731H87.845c-.2.248-.407.489-.616.731ZM9.564,80.675v0L7.079,73.024l11.36.539-8.873,7.11Zm.349-1.164,6.666-5.344-8.536-.4Zm100.52,1.162-.112-.089-8.759-7.02,11.358-.54-.043.139-2.441,7.51h0Zm-.347-1.162,1.869-5.75-8.536.4ZM30.4,80.258c-.165-.241-.323-.487-.484-.731H90.083c-.159.244-.319.49-.484.731Zm61.092-3.077H28.458a.468.468,0,0,1-.47-.472.481.481,0,0,1,.02-.137l1.471-4.786a4.507,4.507,0,0,1,4.334-3.529l1.31.008h.068l.547,0,.389-1.74A4.525,4.525,0,0,1,39.5,63.094L40.355,59a3.113,3.113,0,0,1,3.009-2.5H45a1.412,1.412,0,0,0,1.32-.964l1.124-3.228a1.784,1.784,0,0,1,1.671-1.2h3.313a1.97,1.97,0,0,1,1.9,1.52l.042.172a.7.7,0,0,0,.624.38H56.8l.333-1.132a3.245,3.245,0,0,1,3.112-2.372h.841a1.8,1.8,0,0,1,1.74,1.385l1.248,5.024h3.368a4.144,4.144,0,0,1,3.9,2.864l.991,2.952h3.657A2.623,2.623,0,0,0,78.051,60.9l1.344-1.681a4.2,4.2,0,0,1,3.3-1.606,4.258,4.258,0,0,1,4.065,3.064l5.262,15.885a.472.472,0,0,1,.023.151.474.474,0,0,1-.472.468ZM80.942,69.248l1.868,6.99h8.11L85.86,60.961a3.329,3.329,0,0,0-3.168-2.406A3.27,3.27,0,0,0,80.13,59.8l-1.344,1.683a3.558,3.558,0,0,1-2.793,1.358H72a.471.471,0,0,1-.446-.32l-1.1-3.274a3.206,3.206,0,0,0-3.009-2.221H64.31l2.262,9.1,10.386,0A4.158,4.158,0,0,1,80.942,69.248Zm.893,6.99-1.8-6.748a3.216,3.216,0,0,0-3.074-2.422H65.548a3.34,3.34,0,0,1-2.58-1.6L61.377,62.82a2.821,2.821,0,0,0-2.359-1.282H58.33l-.055.006a1.3,1.3,0,0,0-.415.082,1.419,1.419,0,0,0-.551.39,1.463,1.463,0,0,0-.3.58L53.482,76.238Zm-29.325,0,3.585-13.878a2.353,2.353,0,0,1,1.631-1.675,2.4,2.4,0,0,1,.458-.076l.051,0a.59.59,0,0,1,.1-.008h.688a3.787,3.787,0,0,1,3.109,1.657l.016.024a.354.354,0,0,1,.032.042l1.6,2.66a2.372,2.372,0,0,0,1.813,1.148H65.6L61.913,51.293a.863.863,0,0,0-.826-.67h-.841a2.309,2.309,0,0,0-2.209,1.7l-.684,2.322c-.249.845-1.261,1.632-3.009,2.339a3.691,3.691,0,0,0-2.131,2.413l-.412,1.4a4.284,4.284,0,0,1-3.021,2.97,4.128,4.128,0,0,1-1.077.153H40.471a3.359,3.359,0,0,0-.637.063,3.089,3.089,0,0,0-.376.1l-.009,0a3.583,3.583,0,0,0-2.4,2.652l-2.13,9.5Zm-18.557,0,1.575-7.029-1.7-.01a3.589,3.589,0,0,0-3.432,2.828l-1.3,4.211ZM47.7,62.975A3.337,3.337,0,0,0,50.9,60.528l.411-1.4a4.639,4.639,0,0,1,2.682-3.021c1.408-.569,2.3-1.2,2.459-1.733l.074-.249h-1.53A1.642,1.642,0,0,1,53.478,53.1l-.063-.24a1.034,1.034,0,0,0-.991-.8H49.11a.838.838,0,0,0-.783.572L47.2,55.852A2.349,2.349,0,0,1,45,57.447H43.364a2.167,2.167,0,0,0-2.087,1.746l-.792,3.782Zm27.729,8.774a.653.653,0,0,1-.6-.678l-.019-.545q0-.009,0-.018A.665.665,0,0,1,75,70.038a.521.521,0,0,1,.377-.165l.474,0a.538.538,0,0,1,.384.167.683.683,0,0,1,.191.472q0,.009,0,.017l.03.537a.645.645,0,0,1-.582.684Zm27.37-.924v0l1.218-7.944,10.064,5.589L102.8,70.824Zm.833-.882,8.49-1.774-7.574-4.2Zm-85.979.773-11.3-2.206,10-5.729.024.144,1.274,7.79h0Zm-.842-.87-.977-5.97L8.313,68.189ZM39.838,68.29l.029-.525a.638.638,0,0,1,.181-.449.532.532,0,0,1,.378-.162h.459a.512.512,0,0,1,.372.16.623.623,0,0,1,.173.44q0,.008,0,.016l-.017.519a.627.627,0,0,1-.581.639l-.428,0A.612.612,0,0,1,39.838,68.29ZM82.864,64.27a.654.654,0,0,1-.595-.678l-.02-.544q0-.009,0-.018a.666.666,0,0,1,.183-.471.515.515,0,0,1,.378-.165l.472,0a.532.532,0,0,1,.384.166.688.688,0,0,1,.191.473q0,.009,0,.017l.029.535a.646.646,0,0,1-.582.686Zm31.473-.191L103.7,60.058l10.637-4.022v8.043Zm-.69-1V57.036l-7.993,3.023Zm-107.985,1V56.035L16.3,60.057,5.664,64.077Zm.69-1,7.993-3.022L6.353,57.036Zm104.771-9.052L108.06,52.79l-2.2.335-.143-.923,2.2-.337,2.557-2.1.152.995L108.8,52.226l2.177.848Zm-97.236-.4-5.131-1,.364-1.863a3.505,3.505,0,0,1,.361-1.022A2.279,2.279,0,0,1,10.114,49a2.167,2.167,0,0,1,.915-.39,2.607,2.607,0,0,1,.484-.043,3.654,3.654,0,0,1,.716.076,2.892,2.892,0,0,1,1.072.415,2.278,2.278,0,0,1,.684.7,2.325,2.325,0,0,1,.315.93,3.072,3.072,0,0,1,.023.393,3.69,3.69,0,0,1-.071.691l-.363,1.854h0Zm-.812-1.317.133-.681a2.218,2.218,0,0,0,.045-.436,1.366,1.366,0,0,0-.225-.782A1.55,1.55,0,0,0,12,49.8a2.195,2.195,0,0,0-.44-.047,1.8,1.8,0,0,0-.222.014,1.311,1.311,0,0,0-.547.184,1.267,1.267,0,0,0-.409.415,1.953,1.953,0,0,0-.245.665L10,51.709Zm96.081-4.2-4.092,1.058-.232-.889,4.093-1.06-.414-1.6.819-.212,1.057,4.088-.818.21ZM9.974,47.026l.305-1.095,5.035,1.413-.307,1.094Zm5.566-.538-4.92-1.766.632-1.758a2.085,2.085,0,0,1,.381-.677,1.567,1.567,0,0,1,.519-.4,1.443,1.443,0,0,1,.6-.136h.015a1.783,1.783,0,0,1,.618.112,1.757,1.757,0,0,1,.765.5,1.608,1.608,0,0,1,.368.774l2.347-.341-.424,1.175-2.123.23-.214.595,1.808.65-.374,1.041h0Zm-2.325-2.011.236-.66a.768.768,0,0,0,.05-.264.571.571,0,0,0-.066-.267.694.694,0,0,0-.4-.338.841.841,0,0,0-.286-.054.617.617,0,0,0-.254.053.664.664,0,0,0-.347.4l-.234.659ZM104,45.525l4.821-1.575.284.875L104.286,46.4Zm-.062-.306v0l-.382-.963,1.5-1.651-.255-.645-1.86.734-.323-.823,4.717-1.859.592,1.5a1.975,1.975,0,0,1,.153.715q0,.033,0,.066a1.491,1.491,0,0,1-.152.616,1.471,1.471,0,0,1-.351.45,1.649,1.649,0,0,1-.44.27,1.822,1.822,0,0,1-.669.136,1.733,1.733,0,0,1-.193-.012,1.478,1.478,0,0,1-.774-.356l-1.559,1.821Zm1.867-2.865a.7.7,0,0,0,.4.427.742.742,0,0,0,.262.049.781.781,0,0,0,.291-.059.723.723,0,0,0,.421-.384.682.682,0,0,0,.056-.276.821.821,0,0,0-.06-.3l-.272-.685-1.365.536Zm-42,2.729a4.2,4.2,0,0,1-.82-.291,5.044,5.044,0,0,1-1.177-.753s0,0,0,0a.343.343,0,0,1,.1.244s0,.006,0,.009a.342.342,0,0,1-.683-.006q0-.009,0-.018a.348.348,0,0,1,.055-.175c.017-.025.037-.05.056-.074s.153-.173.192-.222c-.264-.227-.53-.468-.821-.706-.965-.792-1.914-1.614-2.918-2.355a18.44,18.44,0,0,0-2.1-1.355,11.558,11.558,0,0,0-1.646-.749,7.191,7.191,0,0,0-1.184-.319,4.033,4.033,0,0,0-.715-.063.914.914,0,0,0-.237.018,5.493,5.493,0,0,1,3.777.183c1.879.671,5.136,3.563,5.136,3.563l1.274,1.111.012-.015-.01.012a.35.35,0,0,1-.094-.25.342.342,0,1,1,.684.015s0,.006,0,.009c-.005.135-.094.211-.171.309-.039.045-.078.088-.115.135l-.011.013-.013.017c.247.223,1.337,1.188,1.939.662a.546.546,0,0,1,.854.128.617.617,0,0,1,.047.255c0,.311-.186.73-.876.73A2.415,2.415,0,0,1,63.8,45.084Zm-8.991-.676a.612.612,0,0,1,.047-.245.546.546,0,0,1,.855-.125c.6.523,1.691-.44,1.939-.665l-.015-.017,0,.006,0,.006-.013-.016c-.039-.045-.076-.09-.114-.136a.509.509,0,0,1-.171-.309q0-.009,0-.018a.341.341,0,0,1,.683-.007q0,.009,0,.018a.347.347,0,0,1-.094.233l1.052-.92c.237.195.7.583.7.583s-.174.13-.376.3c-.292.239-.557.479-.821.707l.014.019,0,0,0,0,.015.019.08.1.088.1a.548.548,0,0,1,.057.073.36.36,0,0,1,.055.176s0,.006,0,.009a.342.342,0,0,1-.684.015s0-.006,0-.009a.348.348,0,0,1,.1-.244h0a5.014,5.014,0,0,1-1.176.75,4.065,4.065,0,0,1-.821.292,2.408,2.408,0,0,1-.524.065C54.993,45.148,54.812,44.719,54.814,44.407Zm-42.47-4.221.459-1.04,4.784,2.112-.458,1.04Zm48.016.869a16.222,16.222,0,0,1,3.986-2.6,5.475,5.475,0,0,1,3.777-.182.918.918,0,0,0-.239-.018,3.964,3.964,0,0,0-.715.063,7,7,0,0,0-1.182.319,11.46,11.46,0,0,0-1.647.749,18.036,18.036,0,0,0-2.1,1.357c-.49.36-.7.529-1.172.915C60.944,41.548,60.695,41.332,60.36,41.056Zm42.356-.544a2.5,2.5,0,0,1-.878-.451,2.363,2.363,0,0,1-.64-.785,2.4,2.4,0,0,1-.271-.978q0-.063,0-.126a2.519,2.519,0,0,1,.145-.848,2.641,2.641,0,0,1,.509-.872,2.845,2.845,0,0,1,1.85-.956c.089-.008.178-.012.264-.012a2.665,2.665,0,0,1,.735.1,2.469,2.469,0,0,1,.875.45,2.42,2.42,0,0,1,.644.792,2.358,2.358,0,0,1,.269.977q0,.062,0,.124a2.546,2.546,0,0,1-.141.851,2.678,2.678,0,0,1-.506.87,2.854,2.854,0,0,1-1.85.954c-.088.008-.176.012-.263.012A2.694,2.694,0,0,1,102.716,40.511Zm-.886-2.3a1.54,1.54,0,0,0,.6,1.158,1.488,1.488,0,0,0,.576.262,1.7,1.7,0,0,0,.36.039,1.926,1.926,0,0,0,.293-.023,2.1,2.1,0,0,0,.658-.216,2.119,2.119,0,0,0,.56-.413,1.742,1.742,0,0,0,.361-.537,1.467,1.467,0,0,0,.114-.559q0-.03,0-.06a1.477,1.477,0,0,0-.174-.643,1.462,1.462,0,0,0-.991-.777,1.658,1.658,0,0,0-.369-.041,1.96,1.96,0,0,0-.278.021,2.117,2.117,0,0,0-.662.22,2.156,2.156,0,0,0-.558.409,1.8,1.8,0,0,0-.366.543,1.5,1.5,0,0,0-.123.6Q101.83,38.2,101.83,38.214ZM59.99,39.36h0l-1.4-.975h.988l-.241-.779h.226L59.37,36.49h.164l-.21-1.142h.188l-.172-1.074h.166l-.176-1.1.145-.13a2.325,2.325,0,0,1-.44-.764h.006a1.369,1.369,0,0,1-.031-.3c-1.362.5-1.984,2.486-1.984,2.486a2.289,2.289,0,0,1-.242-1.067,2.881,2.881,0,0,1,.5-1.584,3.153,3.153,0,0,1,1.284-1.081,4.446,4.446,0,0,0-3.147,2.286s0-.024,0-.068a3.317,3.317,0,0,1,2.908-3.515,4.947,4.947,0,0,0-2.881.245,3.04,3.04,0,0,1,1.874-1.181,5.308,5.308,0,0,1,1.426-.12,4.36,4.36,0,0,0-2.058-.825,2.851,2.851,0,0,1,2.846.319,3.112,3.112,0,0,1,.454-1.342,3.1,3.1,0,0,1,.457,1.364,2.841,2.841,0,0,1,2.873-.34,4.579,4.579,0,0,0-2.051.821,5.509,5.509,0,0,1,1.388.124,3.04,3.04,0,0,1,1.874,1.181,4.937,4.937,0,0,0-2.87-.249,3.318,3.318,0,0,1,2.928,3.519c0,.044,0,.068,0,.068A4.581,4.581,0,0,0,61.4,30.735a3.173,3.173,0,0,1,1.3,1.088,2.881,2.881,0,0,1,.5,1.584,2.289,2.289,0,0,1-.242,1.067s-.627-2-2-2.49a2.546,2.546,0,0,1-.017.3,2.357,2.357,0,0,1-.441.764l.147.13-.177,1.1h.167l-.173,1.074h.188l-.212,1.142h.167l-.188,1.117h.225l-.241.779h.99l-1.4.975ZM16.614,38.252l-3.512.13.6-1.137,2.257-.037-1.245-1.866.579-1.089,1.851,2.98,1.939,1.03-.54,1.017Zm2.879-.847L16.126,32.99l.682-1.056,5.389,1.3-.677,1.043-1.215-.33-.964,1.485.8.975-.645,1h0Zm-.777-2.691.672-1.037-1.99-.562Zm80.715,1.159,1.817-1.209L99.91,32.652,98.094,33.86l-.511-.767,4.223-2.807.51.765-1.7,1.128,1.339,2.014,1.7-1.129.508.766-4.22,2.808ZM18.4,29.6l.719-.881,1.556,1.271,1.376-1.685L20.5,27.038l.719-.88,4.049,3.309-.719.881-1.664-1.359-1.377,1.684,1.663,1.36-.719.882Zm77.4,1.289,3.274-2.673-1.044-1.279.653-.533,2.67,3.27-.653.533-1.045-1.279L96.382,31.6Zm-1.988-2.272a2.364,2.364,0,0,1-1.185-1.2,1.828,1.828,0,0,1-.136-.674q0-.035,0-.07a1.786,1.786,0,0,1,.18-.721,2.335,2.335,0,0,1,.472-.648l2.279-2.247.644.656-2.16,2.129a2.283,2.283,0,0,0-.331.4,1.017,1.017,0,0,0-.157.4.728.728,0,0,0-.008.1.867.867,0,0,0,.059.308,1.284,1.284,0,0,0,.292.419,1.225,1.225,0,0,0,.416.3.773.773,0,0,0,.409.058A1.038,1.038,0,0,0,95,27.691a2.382,2.382,0,0,0,.409-.327l2.16-2.132.645.657-2.278,2.246a2.31,2.31,0,0,1-.656.463,1.8,1.8,0,0,1-.723.17h-.031A1.84,1.84,0,0,1,93.812,28.621ZM26.69,27.089a2.4,2.4,0,0,1-.962-.288,3.3,3.3,0,0,1-.878-.694,3.061,3.061,0,0,1-.6-.931,2.585,2.585,0,0,1-.2-.972q0-.016,0-.032a2.479,2.479,0,0,1,.208-.985,2.56,2.56,0,0,1,.634-.87,2.608,2.608,0,0,1,1.062-.619,2.362,2.362,0,0,1,1.125-.037l-.051,1.079a2.235,2.235,0,0,0-.719,0,1.284,1.284,0,0,0-.652.343A1.347,1.347,0,0,0,25.2,24.1q0,.037,0,.073a1.569,1.569,0,0,0,.149.587,2.162,2.162,0,0,0,.37.546,1.946,1.946,0,0,0,.543.426,1.534,1.534,0,0,0,.585.17,1.459,1.459,0,0,0,.579-.078,1.53,1.53,0,0,0,.519-.319,1.959,1.959,0,0,0,.356-.427,1.25,1.25,0,0,0,.165-.477l-.445-.485-.655.6-.646-.7,1.424-1.31,1.533,1.671a2.739,2.739,0,0,1-.306,1.018,3.392,3.392,0,0,1-.749.949,2.873,2.873,0,0,1-.947.6,2.38,2.38,0,0,1-.823.151Q26.772,27.095,26.69,27.089Zm65.076-.533-.782-.656.5-1.256L90.1,23.478l-1.15.712-.737-.619,4.674-2.7.727.609-1.845,5.071h0Zm.026-2.687.773-1.921L90.8,23.037Zm-61.473.755h0L28.736,19.3l1.014-.746,4.575,3.129-1,.736L32.3,21.679l-1.426,1.048.4,1.193-.957.7Zm.228-2.794,1-.729-1.661-1.232Zm54.9-.132,2.341-3.518-1.375-.914.468-.7L90.4,18.9l-.468.7-1.373-.913-2.343,3.518Zm-52.5-4.028-1.389.848-.542-.891,3.749-2.286.542.893-1.382.84,2.18,3.575-.977.6Zm50.112,2.557-.375-4.341L80.962,19.1l-.791-.426,2.394-4.468.817.439.376,4.29,1.7-3.176.792.425-2.4,4.468Zm-47.375-5.36,3.09-1.5.45.93-2.066,1,.444.919,1.607-.782.44.9-1.607.781.493,1.015,2.216-1.075.456.938L37.97,19.57Zm41.036,2.347,1.978-4.67,2.9,1.23-.328.778-2.059-.874-.466,1.1,1.514.642-.331.783-1.514-.64L77.9,16.78l2.212.938-.335.791ZM43.135,17.2h0l-1.6-4.812,1.727-.571a3.429,3.429,0,0,1,1.039-.184h.021a2.226,2.226,0,0,1,.9.183,2.07,2.07,0,0,1,.756.589,3.193,3.193,0,0,1,.542,1.031,3,3,0,0,1,.167.943q0,.081-.006.16a2.158,2.158,0,0,1-.266.913,2.225,2.225,0,0,1-.633.707,3.329,3.329,0,0,1-.934.474l-1.718.568Zm.6-1.1.772-.254a1.786,1.786,0,0,0,1.073-.8,1.324,1.324,0,0,0,.151-.634,2.115,2.115,0,0,0-.119-.664,1.856,1.856,0,0,0-.782-1.07,1.245,1.245,0,0,0-.646-.166,2.37,2.37,0,0,0-.737.135l-.768.254Zm31.621.613.9-3.4-1.734,1.624-.412-.128-.519-2.274-1.187,3.252-.823-.257,1.738-4.77.815.255.576,2.69L76.7,11.817l.817.255L76.22,16.982Zm-28.61-5.967,3.075-.707.188.821-2.176.5.266,1.164,1.6-.368.189.829-1.6.368.3,1.289,2.34-.538.192.838-3.237.744ZM68.989,15l-.864-.182L69.173,9.86l1.53.325a1.829,1.829,0,0,1,.784.333,1.506,1.506,0,0,1,.42.5,1.379,1.379,0,0,1,.151.556q0,.068,0,.134a1.832,1.832,0,0,1-.035.372,1.715,1.715,0,0,1-.294.684,1.45,1.45,0,0,1-.476.407,1.482,1.482,0,0,1-.572.171c-.068.006-.134.01-.2.01a1.77,1.77,0,0,1-.383-.041l-.723-.152L68.99,15h0ZM70.2,12.509a.968.968,0,0,0,.2.022.7.7,0,0,0,.392-.116.758.758,0,0,0,.319-.5,1,1,0,0,0,.022-.211.746.746,0,0,0-.116-.4.738.738,0,0,0-.49-.333l-.65-.137-.325,1.539ZM50.36,9.911l1.011-.144L53.2,13.415,53.931,9.4l.954-.137L53.81,14.54l-.94.134ZM65.193,14.56a2.392,2.392,0,0,1-.962-.318,2.542,2.542,0,0,1-.735-.659,2.742,2.742,0,0,1-.441-.906,2.657,2.657,0,0,1-.1-.715,2.947,2.947,0,0,1,.019-.339,2.731,2.731,0,0,1,.94-1.792,2.51,2.51,0,0,1,.86-.476,2.4,2.4,0,0,1,.723-.112,2.466,2.466,0,0,1,.292.017,2.346,2.346,0,0,1,.962.317,2.531,2.531,0,0,1,.735.656,2.635,2.635,0,0,1,.443.9,2.68,2.68,0,0,1,.1.714,3.008,3.008,0,0,1-.019.34,2.734,2.734,0,0,1-.944,1.8,2.6,2.6,0,0,1-.863.48,2.322,2.322,0,0,1-.72.112A2.663,2.663,0,0,1,65.193,14.56ZM63.969,12.4a1.758,1.758,0,0,0,.247.6,1.5,1.5,0,0,0,.444.441,1.432,1.432,0,0,0,.635.217,1.77,1.77,0,0,0,.192.012,1.338,1.338,0,0,0,.468-.081,1.477,1.477,0,0,0,.539-.333,1.819,1.819,0,0,0,.375-.533,2.184,2.184,0,0,0,.186-.666,2.279,2.279,0,0,0,.014-.268,2.029,2.029,0,0,0-.047-.427,1.761,1.761,0,0,0-.247-.6,1.469,1.469,0,0,0-1.082-.648,1.752,1.752,0,0,0-.192-.011,1.4,1.4,0,0,0-.472.079,1.5,1.5,0,0,0-.533.325,1.726,1.726,0,0,0-.375.526,2.046,2.046,0,0,0-.186.671,2.139,2.139,0,0,0-.014.261A2.1,2.1,0,0,0,63.969,12.4ZM55.45,9.239l3.15-.181.049.841-2.231.129.069,1.192,1.639-.1.049.85-1.64.1.077,1.32,2.4-.137.05.857-3.316.191ZM59.5,14.111l.108-5.069.921.021-.092,4.217,2.4.052-.018.852Z" fill="#fff"/></svg>